G04 ================== begin FILE IDENTIFICATION RECORD ==================*
G04 Layout Name:  dividers_v2.brd*
G04 Film Name:    SOLDERMASK_TOP*
G04 File Format:  Gerber RS274X*
G04 File Origin:  Cadence Allegro 16.6-P004*
G04 Origin Date:  Sat May 27 00:21:45 2017*
G04 *
G04 Layer:  CONSTRAINT REGION/ALL*
G04 Layer:  CONSTRAINT REGION/OUTER_LAYERS*
G04 Layer:  CONSTRAINT REGION/INNER_SIGNAL_LAYERS*
G04 Layer:  CONSTRAINT REGION/INNER_PLANE_LAYERS*
G04 Layer:  CONSTRAINT REGION/BOTTOM*
G04 Layer:  CONSTRAINT REGION/TOP*
G04 Layer:  VIA KEEPOUT/ALL*
G04 Layer:  VIA KEEPOUT/BOTTOM*
G04 Layer:  VIA KEEPOUT/TOP*
G04 Layer:  VIA CLASS/SOLDERMASK_TOP*
G04 Layer:  ROUTE KEEPOUT/ALL*
G04 Layer:  ROUTE KEEPOUT/BOTTOM*
G04 Layer:  ROUTE KEEPOUT/TOP*
G04 Layer:  ROUTE KEEPIN/ALL*
G04 Layer:  PIN/SOLDERMASK_TOP*
G04 Layer:  PACKAGE KEEPOUT/ALL*
G04 Layer:  PACKAGE KEEPOUT/TOP*
G04 Layer:  PACKAGE KEEPOUT/BOTTOM*
G04 Layer:  PACKAGE KEEPIN/ALL*
G04 Layer:  DRC ERROR CLASS/SOLDERMASK_TOP*
G04 *
G04 Offset:    (0.00 0.00)*
G04 Mirror:    No*
G04 Mode:      Positive*
G04 Rotation:  0*
G04 FullContactRelief:  No*
G04 UndefLineWidth:     0.00*
G04 ================== end FILE IDENTIFICATION RECORD ====================*
%FSLAX25Y25*MOIN*%
%IR0*IPPOS*OFA0.00000B0.00000*MIA0B0*SFA1.00000B1.00000*%
%ADD15R,.045X.1*%
%ADD12C,.06*%
%ADD11C,.065*%
%ADD16C,.142*%
%ADD10C,.16*%
%ADD14R,.068X.055*%
%ADD13R,.055X.068*%
%LPD*%
G75*
G54D10*
X15000Y15000D03*
Y225000D03*
Y275000D03*
Y485000D03*
Y535000D03*
Y745000D03*
X225000Y15000D03*
Y225000D03*
Y275000D03*
Y485000D03*
Y535000D03*
Y745000D03*
X275000Y15000D03*
Y225000D03*
Y275000D03*
Y485000D03*
Y535000D03*
Y745000D03*
X485000Y15000D03*
Y225000D03*
Y275000D03*
Y485000D03*
Y535000D03*
Y745000D03*
X535000Y15000D03*
Y225000D03*
Y275000D03*
Y485000D03*
Y535000D03*
Y745000D03*
X745000Y15000D03*
Y225000D03*
Y275000D03*
Y485000D03*
Y535000D03*
Y745000D03*
G54D11*
X20000Y42000D03*
X32500Y59500D03*
X10000Y64500D03*
X15000Y54500D03*
X20000Y302000D03*
X32500Y319500D03*
X10000Y324500D03*
X15000Y314500D03*
X32500Y579500D03*
X15000Y574500D03*
X20000Y562000D03*
X10000Y584500D03*
X108200Y45200D03*
X100000Y62000D03*
X108200Y102700D03*
X100000Y87000D03*
X107500Y74500D03*
Y132000D03*
X100000Y117000D03*
X107500Y162000D03*
X99300Y146300D03*
X107500Y189500D03*
X99300Y176300D03*
X108200Y305200D03*
X107500Y334500D03*
X100000Y322000D03*
X108200Y362700D03*
X100000Y347000D03*
X107500Y392000D03*
X100000Y377000D03*
X107500Y422000D03*
X99300Y406300D03*
X107500Y449500D03*
X99300Y436300D03*
X108200Y565200D03*
X100000Y582000D03*
Y607000D03*
X107500Y594500D03*
X108200Y622700D03*
X100000Y637000D03*
X99300Y666300D03*
X107500Y652000D03*
X99300Y696300D03*
X107500Y682000D03*
Y709500D03*
X210000Y92000D03*
X192500Y124500D03*
X190000Y157000D03*
Y144500D03*
Y169500D03*
X210000Y352000D03*
X192500Y384500D03*
X190000Y417000D03*
Y404500D03*
Y429500D03*
X210000Y612000D03*
X192500Y644500D03*
X190000Y664500D03*
Y677000D03*
Y689500D03*
X222500Y72000D03*
Y52000D03*
Y94500D03*
Y114500D03*
Y134500D03*
Y312000D03*
Y332000D03*
Y354500D03*
Y394500D03*
Y374500D03*
Y572000D03*
Y592000D03*
Y634500D03*
Y614500D03*
Y654500D03*
X270000Y64500D03*
Y324500D03*
Y584500D03*
X280000Y42000D03*
X292500Y59500D03*
X275000Y54500D03*
X280000Y302000D03*
X292500Y319500D03*
X275000Y314500D03*
X292500Y579500D03*
X275000Y574500D03*
X280000Y562000D03*
X360000Y62000D03*
Y87000D03*
Y117000D03*
X359300Y146300D03*
Y176300D03*
X360000Y322000D03*
Y347000D03*
Y377000D03*
X359300Y406300D03*
Y436300D03*
X360000Y582000D03*
Y607000D03*
Y637000D03*
X359300Y666300D03*
Y696300D03*
X368200Y45200D03*
Y102700D03*
X367500Y74500D03*
Y132000D03*
Y162000D03*
Y189500D03*
X368200Y305200D03*
X367500Y334500D03*
X368200Y362700D03*
X367500Y392000D03*
Y422000D03*
Y449500D03*
X368200Y565200D03*
X367500Y594500D03*
X368200Y622700D03*
X367500Y652000D03*
Y682000D03*
Y709500D03*
X452500Y124500D03*
X450000Y157000D03*
Y144500D03*
Y169500D03*
X452500Y384500D03*
X450000Y417000D03*
Y404500D03*
Y429500D03*
X452500Y644500D03*
X450000Y664500D03*
Y677000D03*
Y689500D03*
X482500Y72000D03*
Y52000D03*
X470000Y92000D03*
X482500Y94500D03*
Y114500D03*
Y134500D03*
Y312000D03*
Y332000D03*
X470000Y352000D03*
X482500Y354500D03*
Y394500D03*
Y374500D03*
Y572000D03*
X470000Y612000D03*
X482500Y592000D03*
Y634500D03*
Y614500D03*
Y654500D03*
X540000Y42000D03*
X530000Y64500D03*
X535000Y54500D03*
X540000Y302000D03*
X530000Y324500D03*
X535000Y314500D03*
Y574500D03*
X540000Y562000D03*
X530000Y584500D03*
X552500Y59500D03*
Y319500D03*
Y579500D03*
X628200Y45200D03*
X620000Y62000D03*
X628200Y102700D03*
X620000Y87000D03*
X627500Y74500D03*
Y132000D03*
X620000Y117000D03*
X627500Y162000D03*
X619300Y146300D03*
X627500Y189500D03*
X619300Y176300D03*
X628200Y305200D03*
X627500Y334500D03*
X620000Y322000D03*
X628200Y362700D03*
X620000Y347000D03*
X627500Y392000D03*
X620000Y377000D03*
X627500Y422000D03*
X619300Y406300D03*
X627500Y449500D03*
X619300Y436300D03*
X628200Y565200D03*
X620000Y582000D03*
Y607000D03*
X627500Y594500D03*
X628200Y622700D03*
X620000Y637000D03*
X619300Y666300D03*
X627500Y652000D03*
X619300Y696300D03*
X627500Y682000D03*
Y709500D03*
X712500Y124500D03*
X710000Y157000D03*
Y144500D03*
Y169500D03*
X712500Y384500D03*
X710000Y417000D03*
Y404500D03*
Y429500D03*
X712500Y644500D03*
X710000Y664500D03*
Y677000D03*
Y689500D03*
X742500Y72000D03*
Y52000D03*
X730000Y92000D03*
X742500Y94500D03*
Y114500D03*
Y134500D03*
Y312000D03*
Y332000D03*
X730000Y352000D03*
X742500Y354500D03*
Y394500D03*
Y374500D03*
Y572000D03*
X730000Y612000D03*
X742500Y592000D03*
Y634500D03*
Y614500D03*
Y654500D03*
G54D12*
X50000Y29500D03*
X40000D03*
X50000Y39500D03*
X40000D03*
Y49500D03*
X50000Y59500D03*
X40000D03*
X50000Y69500D03*
X40000D03*
X50000Y49500D03*
Y79500D03*
X40000D03*
X50000Y89500D03*
X40000D03*
X50000Y149500D03*
X40000D03*
X50000Y159500D03*
X40000D03*
Y169500D03*
X50000Y179500D03*
X40000D03*
X50000Y189500D03*
X40000D03*
X50000Y169500D03*
Y199500D03*
X40000D03*
X50000Y209500D03*
X40000D03*
Y309500D03*
X50000Y289500D03*
X40000D03*
X50000Y299500D03*
X40000D03*
X50000Y309500D03*
Y319500D03*
X40000D03*
X50000Y329500D03*
X40000D03*
X50000Y339500D03*
X40000D03*
X50000Y349500D03*
X40000D03*
Y429500D03*
X50000Y409500D03*
X40000D03*
X50000Y419500D03*
X40000D03*
X50000Y429500D03*
Y439500D03*
X40000D03*
X50000Y449500D03*
X40000D03*
X50000Y459500D03*
X40000D03*
X50000Y469500D03*
X40000D03*
X50000Y549500D03*
X40000D03*
Y569500D03*
X50000Y579500D03*
X40000D03*
X50000Y559500D03*
X40000D03*
X50000Y569500D03*
Y589500D03*
X40000D03*
X50000Y599500D03*
X40000D03*
X50000Y609500D03*
X40000D03*
X50000Y669500D03*
X40000D03*
Y689500D03*
X50000Y699500D03*
X40000D03*
X50000Y679500D03*
X40000D03*
X50000Y689500D03*
Y709500D03*
X40000D03*
X50000Y719500D03*
X40000D03*
X50000Y729500D03*
X40000D03*
X300000Y29500D03*
Y39500D03*
Y49500D03*
Y59500D03*
Y69500D03*
Y79500D03*
Y89500D03*
Y149500D03*
Y159500D03*
Y169500D03*
Y179500D03*
Y189500D03*
Y199500D03*
Y209500D03*
Y309500D03*
Y289500D03*
Y299500D03*
Y319500D03*
Y329500D03*
Y339500D03*
Y349500D03*
Y429500D03*
Y409500D03*
Y419500D03*
Y439500D03*
Y449500D03*
Y459500D03*
Y469500D03*
Y549500D03*
Y569500D03*
Y579500D03*
Y559500D03*
Y589500D03*
Y599500D03*
Y609500D03*
Y669500D03*
Y689500D03*
Y699500D03*
Y679500D03*
Y709500D03*
Y719500D03*
Y729500D03*
X310000Y29500D03*
Y39500D03*
Y59500D03*
Y69500D03*
Y49500D03*
Y79500D03*
Y89500D03*
Y149500D03*
Y159500D03*
Y179500D03*
Y189500D03*
Y169500D03*
Y199500D03*
Y209500D03*
Y289500D03*
Y299500D03*
Y309500D03*
Y319500D03*
Y329500D03*
Y339500D03*
Y349500D03*
Y409500D03*
Y419500D03*
Y429500D03*
Y439500D03*
Y449500D03*
Y459500D03*
Y469500D03*
Y549500D03*
Y579500D03*
Y559500D03*
Y569500D03*
Y589500D03*
Y599500D03*
Y609500D03*
Y669500D03*
Y699500D03*
Y679500D03*
Y689500D03*
Y709500D03*
Y719500D03*
Y729500D03*
X570000Y29500D03*
X560000D03*
X570000Y39500D03*
X560000D03*
Y49500D03*
X570000Y59500D03*
X560000D03*
X570000Y69500D03*
X560000D03*
X570000Y49500D03*
Y79500D03*
X560000D03*
X570000Y89500D03*
X560000D03*
X570000Y149500D03*
X560000D03*
X570000Y159500D03*
X560000D03*
Y169500D03*
X570000Y179500D03*
X560000D03*
X570000Y189500D03*
X560000D03*
X570000Y169500D03*
Y199500D03*
X560000D03*
X570000Y209500D03*
X560000D03*
Y309500D03*
X570000Y289500D03*
X560000D03*
X570000Y299500D03*
X560000D03*
X570000Y309500D03*
Y319500D03*
X560000D03*
X570000Y329500D03*
X560000D03*
X570000Y339500D03*
X560000D03*
X570000Y349500D03*
X560000D03*
Y429500D03*
X570000Y409500D03*
X560000D03*
X570000Y419500D03*
X560000D03*
X570000Y429500D03*
Y439500D03*
X560000D03*
X570000Y449500D03*
X560000D03*
X570000Y459500D03*
X560000D03*
X570000Y469500D03*
X560000D03*
X570000Y549500D03*
X560000D03*
Y569500D03*
X570000Y579500D03*
X560000D03*
X570000Y559500D03*
X560000D03*
X570000Y569500D03*
Y589500D03*
X560000D03*
X570000Y599500D03*
X560000D03*
X570000Y609500D03*
X560000D03*
X570000Y669500D03*
X560000D03*
Y689500D03*
X570000Y699500D03*
X560000D03*
X570000Y679500D03*
X560000D03*
X570000Y689500D03*
Y709500D03*
X560000D03*
X570000Y719500D03*
X560000D03*
X570000Y729500D03*
X560000D03*
G54D13*
X118200Y62000D03*
Y74500D03*
Y87000D03*
Y334500D03*
Y322000D03*
Y347000D03*
Y582000D03*
Y594500D03*
Y607000D03*
X131800Y62000D03*
Y74500D03*
Y87000D03*
Y334500D03*
Y322000D03*
Y347000D03*
Y582000D03*
Y594500D03*
Y607000D03*
X188200Y92000D03*
X201800D03*
X188200Y352000D03*
X201800D03*
X188200Y612000D03*
X201800D03*
X378200Y62000D03*
X391800D03*
X378200Y74500D03*
X391800D03*
X378200Y87000D03*
X391800D03*
X378200Y334500D03*
X391800D03*
X378200Y322000D03*
X391800D03*
X378200Y347000D03*
X391800D03*
X378200Y582000D03*
X391800D03*
X378200Y594500D03*
X391800D03*
X378200Y607000D03*
X391800D03*
X448200Y92000D03*
Y352000D03*
Y612000D03*
X461800Y92000D03*
Y352000D03*
Y612000D03*
X638200Y62000D03*
X651800D03*
X638200Y74500D03*
X651800D03*
X638200Y87000D03*
X651800D03*
X638200Y334500D03*
X651800D03*
X638200Y322000D03*
X651800D03*
X638200Y347000D03*
X651800D03*
X638200Y582000D03*
X651800D03*
X638200Y594500D03*
X651800D03*
X638200Y607000D03*
X651800D03*
X708200Y92000D03*
X721800D03*
X708200Y352000D03*
X721800D03*
X708200Y612000D03*
X721800D03*
G54D14*
X142500Y45200D03*
Y58800D03*
Y72700D03*
Y86300D03*
Y102700D03*
Y116300D03*
Y132700D03*
Y146300D03*
Y162700D03*
Y176300D03*
Y305200D03*
Y318800D03*
Y332700D03*
Y346300D03*
Y362700D03*
Y376300D03*
Y392700D03*
Y406300D03*
Y422700D03*
Y436300D03*
Y565200D03*
Y578800D03*
Y592700D03*
Y606300D03*
Y622700D03*
Y636300D03*
Y652700D03*
Y666300D03*
Y682700D03*
Y696300D03*
X162500Y57700D03*
Y71300D03*
Y87700D03*
Y101300D03*
Y117700D03*
Y131300D03*
Y147700D03*
Y161300D03*
Y177700D03*
Y191300D03*
Y317700D03*
Y331300D03*
Y347700D03*
Y361300D03*
Y377700D03*
Y391300D03*
Y407700D03*
Y421300D03*
Y437700D03*
Y451300D03*
Y577700D03*
Y591300D03*
Y607700D03*
Y621300D03*
Y637700D03*
Y651300D03*
Y667700D03*
Y681300D03*
Y697700D03*
Y711300D03*
X402500Y45200D03*
Y58800D03*
Y72700D03*
X422500Y57700D03*
Y71300D03*
X402500Y86300D03*
Y102700D03*
X422500Y87700D03*
Y101300D03*
X402500Y116300D03*
Y132700D03*
X422500Y117700D03*
Y131300D03*
X402500Y146300D03*
Y162700D03*
X422500Y147700D03*
Y161300D03*
X402500Y176300D03*
X422500Y177700D03*
Y191300D03*
X402500Y305200D03*
Y318800D03*
Y332700D03*
X422500Y317700D03*
Y331300D03*
X402500Y346300D03*
Y362700D03*
X422500Y347700D03*
Y361300D03*
X402500Y376300D03*
Y392700D03*
X422500Y377700D03*
Y391300D03*
X402500Y406300D03*
Y422700D03*
X422500Y407700D03*
Y421300D03*
X402500Y436300D03*
X422500Y437700D03*
Y451300D03*
X402500Y565200D03*
Y578800D03*
X422500Y577700D03*
X402500Y592700D03*
Y606300D03*
X422500Y591300D03*
Y607700D03*
X402500Y622700D03*
Y636300D03*
X422500Y621300D03*
Y637700D03*
X402500Y652700D03*
Y666300D03*
X422500Y651300D03*
Y667700D03*
X402500Y682700D03*
Y696300D03*
X422500Y681300D03*
Y697700D03*
Y711300D03*
X662500Y45200D03*
Y58800D03*
Y72700D03*
Y86300D03*
Y102700D03*
Y116300D03*
Y132700D03*
Y146300D03*
Y162700D03*
Y176300D03*
Y305200D03*
Y318800D03*
Y332700D03*
Y346300D03*
Y362700D03*
Y376300D03*
Y392700D03*
Y406300D03*
Y422700D03*
Y436300D03*
Y565200D03*
Y578800D03*
Y592700D03*
Y606300D03*
Y622700D03*
Y636300D03*
Y652700D03*
Y666300D03*
Y682700D03*
Y696300D03*
X682500Y57700D03*
Y71300D03*
Y87700D03*
Y101300D03*
Y117700D03*
Y131300D03*
Y147700D03*
Y161300D03*
Y177700D03*
Y191300D03*
Y317700D03*
Y331300D03*
Y347700D03*
Y361300D03*
Y377700D03*
Y391300D03*
Y407700D03*
Y421300D03*
Y437700D03*
Y451300D03*
Y577700D03*
Y591300D03*
Y607700D03*
Y621300D03*
Y637700D03*
Y651300D03*
Y667700D03*
Y681300D03*
Y697700D03*
Y711300D03*
G54D15*
X188652Y47000D03*
X201250D03*
X188652Y62000D03*
X201250D03*
X188652Y77000D03*
X201250D03*
X188652Y307000D03*
X201250D03*
X188652Y322000D03*
X201250D03*
X188652Y337000D03*
X201250D03*
X188652Y567000D03*
X201250D03*
X188652Y582000D03*
X201250D03*
X188652Y597000D03*
X201250D03*
X448652Y47000D03*
Y62000D03*
Y77000D03*
Y307000D03*
Y322000D03*
Y337000D03*
Y567000D03*
Y582000D03*
Y597000D03*
X461250Y47000D03*
Y62000D03*
Y77000D03*
Y307000D03*
Y322000D03*
Y337000D03*
Y567000D03*
Y582000D03*
Y597000D03*
X708652Y47000D03*
X721250D03*
X708652Y62000D03*
X721250D03*
X708652Y77000D03*
X721250D03*
X708652Y307000D03*
X721250D03*
X708652Y322000D03*
X721250D03*
X708652Y337000D03*
X721250D03*
X708652Y567000D03*
X721250D03*
X708652Y582000D03*
X721250D03*
X708652Y597000D03*
X721250D03*
G54D16*
X207500Y184500D03*
X195000Y212000D03*
X207500Y444500D03*
X195000Y472000D03*
X207500Y704500D03*
X195000Y732000D03*
X455000Y212000D03*
Y472000D03*
Y732000D03*
X467500Y184500D03*
Y444500D03*
Y704500D03*
X727500Y184500D03*
X715000Y212000D03*
X727500Y444500D03*
X715000Y472000D03*
X727500Y704500D03*
X715000Y732000D03*
M02*
